<svg xmlns="http://www.w3.org/2000/svg" xmlns:xlink="http://www.w3.org/1999/xlink" viewBox="0 0 136 28"><defs><style>.cls-1{font-size:20.89px;fill:none;font-family:ArialMT, Arial;}.cls-2{fill:#336b8c;}.cls-3{fill:#4c9fd7;}.cls-4{fill:#020203;opacity:0.2;}.cls-5{clip-path:url(#clip-path);}.cls-6{fill:url(#linear-gradient);}.cls-7{fill:url(#linear-gradient-2);}.cls-8{fill:url(#linear-gradient-3);}</style><clipPath id="clip-path"><text class="cls-1" transform="translate(52.99 20.29)">Decode</text></clipPath><linearGradient id="linear-gradient" x1="51.19" y1="13.71" x2="128.58" y2="13.71" gradientUnits="userSpaceOnUse"><stop offset="0" stop-color="#478fcc"/><stop offset="0.36" stop-color="#3a76a9"/><stop offset="0.78" stop-color="#2e5d85"/><stop offset="1" stop-color="#295478"/></linearGradient><linearGradient id="linear-gradient-2" x1="33.29" y1="22" x2="33.29" y2="5.26" xlink:href="#linear-gradient"/><linearGradient id="linear-gradient-3" x1="27.71" y1="22" x2="27.71" y2="8.98" xlink:href="#linear-gradient"/></defs><g id="Layer_2" data-name="Layer 2"><path class="cls-2" d="M9.59,6.51H27.11a1.08,1.08,0,0,1,1.08,1.08V9.15a1.08,1.08,0,0,1-1.08,1.08H9.59a0,0,0,0,1,0,0V6.51A0,0,0,0,1,9.59,6.51Z" transform="translate(-0.38 15.81) rotate(-45)"/><path class="cls-3" d="M9.59,17H27.11a1.08,1.08,0,0,1,1.08,1.08v1.55a1.08,1.08,0,0,1-1.08,1.08H9.59a0,0,0,0,1,0,0V17A0,0,0,0,1,9.59,17Z" transform="translate(18.89 -7.82) rotate(45)"/><polyline class="cls-4" points="16.26 13.63 14.39 10.23 13.63 11 16.26 13.66"/><path class="cls-2" d="M35.19,17H52.71a1.08,1.08,0,0,1,1.08,1.08v1.55a1.08,1.08,0,0,1-1.08,1.08H35.19a0,0,0,0,1,0,0V17A0,0,0,0,1,35.19,17Z" transform="translate(89.31 0.78) rotate(135)"/><path class="cls-3" d="M35.19,6.51H52.71A1.08,1.08,0,0,1,53.8,7.59V9.15a1.08,1.08,0,0,1-1.08,1.08H35.19a0,0,0,0,1,0,0V6.51a0,0,0,0,1,0,0Z" transform="translate(70.04 45.75) rotate(-135)"/><polyline class="cls-4" points="47.12 13.63 48.99 17.02 49.76 16.26 47.12 13.59"/><g class="cls-5"><rect class="cls-6" x="51.19" y="-0.19" width="77.39" height="27.79"/></g><path class="cls-7" d="M32.36,5.26h-5a1.52,1.52,0,0,0-1.51,1.51V9h6.51A4.65,4.65,0,0,1,37,13.63h0a4.65,4.65,0,0,1-4.65,4.65H29.57V22h2.79a8.37,8.37,0,0,0,8.37-8.37h0A8.37,8.37,0,0,0,32.36,5.26Z"/><path class="cls-8" d="M25.85,9h3.72a0,0,0,0,1,0,0V22a0,0,0,0,1,0,0H28a2.17,2.17,0,0,1-2.17-2.17V9a0,0,0,0,1,0,0Z"/></g></svg>