<svg xmlns="http://www.w3.org/2000/svg" xmlns:xlink="http://www.w3.org/1999/xlink" viewBox="0 0 1561.19 393.75"><defs><style>.cls-1{font-size:253.09px;fill:none;font-family:ArialMT, Arial;}.cls-2{fill:#336b8c;}.cls-3{fill:#4c9fd7;}.cls-4{fill:#020203;opacity:0.2;}.cls-5{clip-path:url(#clip-path);}.cls-6{fill:url(#linear-gradient);}.cls-7{fill:url(#linear-gradient-2);}.cls-8{fill:url(#linear-gradient-3);}</style><clipPath id="clip-path"><text class="cls-1" transform="translate(607.92 277.6)">Decode</text></clipPath><linearGradient id="linear-gradient" x1="586.21" y1="197.82" x2="1523.59" y2="197.82" gradientUnits="userSpaceOnUse"><stop offset="0" stop-color="#478fcc"/><stop offset="0.36" stop-color="#3a76a9"/><stop offset="0.78" stop-color="#2e5d85"/><stop offset="1" stop-color="#295478"/></linearGradient><linearGradient id="linear-gradient-2" x1="369.37" y1="298.29" x2="369.37" y2="95.46" xlink:href="#linear-gradient"/><linearGradient id="linear-gradient-3" x1="301.76" y1="298.29" x2="301.76" y2="140.53" xlink:href="#linear-gradient"/></defs><g id="Layer_2" data-name="Layer 2"><path class="cls-2" d="M82.25,110.62H285.07a22.54,22.54,0,0,1,22.54,22.54v0a22.54,22.54,0,0,1-22.54,22.54H82.25a0,0,0,0,1,0,0V110.62a0,0,0,0,1,0,0Z" transform="translate(-37.06 176.83) rotate(-45)"/><path class="cls-3" d="M82.25,238.06H285.07a22.54,22.54,0,0,1,22.54,22.54v0a22.54,22.54,0,0,1-22.54,22.54H82.25a0,0,0,0,1,0,0V238.06a0,0,0,0,1,0,0Z" transform="translate(241.36 -61.51) rotate(45)"/><polyline class="cls-4" points="163.08 196.88 140.44 155.74 131.19 164.98 163.08 197.3"/><path class="cls-2" d="M392.39,238.06H595.22a22.54,22.54,0,0,1,22.54,22.54v0a22.54,22.54,0,0,1-22.54,22.54H392.39a0,0,0,0,1,0,0V238.06a0,0,0,0,1,0,0Z" transform="translate(1046.48 87.72) rotate(135)"/><path class="cls-3" d="M392.39,110.62H595.22a22.54,22.54,0,0,1,22.54,22.54v0a22.54,22.54,0,0,1-22.54,22.54H392.39a0,0,0,0,1,0,0V110.62a0,0,0,0,1,0,0Z" transform="translate(768.06 584.45) rotate(-135)"/><polyline class="cls-4" points="536.92 196.88 559.56 238.01 568.82 228.77 536.92 196.45"/><g class="cls-5"><rect class="cls-6" x="586.21" y="29.52" width="937.38" height="336.61"/></g><path class="cls-7" d="M358.1,95.46H297.58a18.36,18.36,0,0,0-18.36,18.36v26.71H358.1a56.34,56.34,0,0,1,56.34,56.34h0a56.34,56.34,0,0,1-56.34,56.34H324.3v45.07h33.8A101.42,101.42,0,0,0,459.52,196.88h0A101.42,101.42,0,0,0,358.1,95.46Z"/><path class="cls-8" d="M279.22,140.53H324.3a0,0,0,0,1,0,0V298.29a0,0,0,0,1,0,0H297.6a18.37,18.37,0,0,1-18.37-18.37V140.53a0,0,0,0,1,0,0Z"/></g></svg>